<svg width="900" height="520" viewBox="0 0 900 520" fill="none" xmlns="http://www.w3.org/2000/svg">
  <rect width="900" height="520" rx="0" fill="#0D4E88"/>
  <rect width="900" height="520" fill="url(#paint0_linear_311_2)"/>
  <circle cx="122" cy="114" r="164" fill="#FFD9B4" fill-opacity="0.34"/>
  <circle cx="772" cy="108" r="154" fill="#8FD1FF" fill-opacity="0.22"/>
  <circle cx="678" cy="398" r="206" fill="#59B2FF" fill-opacity="0.18"/>
  <path d="M0 386C66 344.667 150.333 327 253 333C355.667 339 451.333 378 540 450C629.333 522 749.333 545.333 900 520V520H0V386Z" fill="#F6FAFF" fill-opacity="0.22"/>
  <path d="M-35 460C53 412 147.333 387.667 248 387C348.667 386.333 446.667 413 542 467C637.333 521 756.667 538.667 900 520V520H-35V460Z" fill="#F8FBFF" fill-opacity="0.42"/>
  <g opacity="0.92">
    <rect x="126" y="122" width="168" height="232" rx="28" transform="rotate(-9 126 122)" fill="#F9FCFF" fill-opacity="0.94"/>
    <rect x="177" y="147" width="142" height="196" rx="22" transform="rotate(-9 177 147)" fill="#D7ECFF"/>
    <rect x="212" y="170" width="64" height="94" rx="20" transform="rotate(-9 212 170)" fill="#6CBEFF"/>
    <rect x="201" y="283" width="92" height="24" rx="12" transform="rotate(-9 201 283)" fill="#9FD1FF"/>
    <rect x="188" y="318" width="118" height="16" rx="8" transform="rotate(-9 188 318)" fill="#AFCBE6"/>
  </g>
  <g opacity="0.95">
    <rect x="552" y="104" width="202" height="256" rx="34" fill="#FFFFFF" fill-opacity="0.2"/>
    <rect x="582" y="138" width="142" height="34" rx="17" fill="#FFFFFF" fill-opacity="0.72"/>
    <rect x="582" y="192" width="106" height="22" rx="11" fill="#B2E1FF"/>
    <rect x="582" y="232" width="138" height="18" rx="9" fill="#E3F2FF" fill-opacity="0.9"/>
    <rect x="582" y="264" width="124" height="18" rx="9" fill="#E3F2FF" fill-opacity="0.78"/>
    <rect x="582" y="312" width="86" height="30" rx="15" fill="#FDD34D"/>
  </g>
  <defs>
    <linearGradient id="paint0_linear_311_2" x1="91" y1="59" x2="800" y2="478" gradientUnits="userSpaceOnUse">
      <stop stop-color="#58B7FF"/>
      <stop offset="0.43" stop-color="#1B74BF"/>
      <stop offset="1" stop-color="#0C4376"/>
    </linearGradient>
  </defs>
</svg>
